#N canvas 220 68 988 563 10;
#X obj 83 261 hsl 256 15 0 255 0 0 empty empty empty -2 -8 0 10 -262144
-1 -1 15800 1;
#X text 165 242 control fader;
#X obj 390 322 comport 9600;
#X msg 354 47 devices;
#X floatatom 206 432 5 0 0 0 - - -;
#X obj 212 366 int;
#X msg 424 48 open 3;
#X msg 491 48 close 3;
#X obj 459 363 bng 15 250 50 0 empty empty empty 17 7 0 10 -262144
-1 -1;
#X msg 504 114 4;
#X msg 500 138 40;
#X msg 499 160 80;
#X msg 499 188 100;
#X msg 502 212 120;
#X msg 498 236 160;
#X msg 497 258 200;
#X msg 497 286 250;
#X floatatom 133 75 5 0 0 0 - - -;
#X obj 77 170 int;
#X obj 80 63 tgl 15 0 empty empty empty 17 7 0 10 -262144 -1 -1 0 1
;
#X msg 102 138 0;
#X floatatom 246 71 5 0 0 0 - - -;
#X obj 190 166 int;
#X obj 193 59 tgl 15 0 empty empty empty 17 7 0 10 -262144 -1 -1 0
1;
#X obj 195 101 metro 80;
#X obj 236 168 - 2;
#X obj 82 105 metro 80;
#X msg 215 134 255;
#X obj 135 172 + 2;
#X text 609 166 This patch has been made to control a motorized fader
with arduino;
#X text 37 34 Send ascending sequence;
#X text 174 26 Send descending sequence;
#X text 265 171 Sequence steps;
#X text 248 135 Reset position;
#X text 243 202;
#X text 491 322 Serial communication;
#X connect 0 0 5 0;
#X connect 2 1 8 0;
#X connect 3 0 2 0;
#X connect 5 0 4 0;
#X connect 5 0 2 0;
#X connect 6 0 2 0;
#X connect 7 0 2 0;
#X connect 9 0 2 0;
#X connect 10 0 2 0;
#X connect 11 0 2 0;
#X connect 12 0 2 0;
#X connect 13 0 2 0;
#X connect 14 0 2 0;
#X connect 15 0 2 0;
#X connect 16 0 2 0;
#X connect 17 0 26 1;
#X connect 18 0 0 0;
#X connect 18 0 27 0;
#X connect 18 0 28 0;
#X connect 19 0 26 0;
#X connect 20 0 18 1;
#X connect 21 0 24 1;
#X connect 22 0 0 0;
#X connect 22 0 20 0;
#X connect 22 0 25 0;
#X connect 23 0 24 0;
#X connect 24 0 22 0;
#X connect 25 0 22 1;
#X connect 26 0 18 0;
#X connect 27 0 22 1;
#X connect 28 0 18 1;
